# xmcd
#
# Track frame offsets:
#	150
#	23413
#	50703
#	73025
#	94273
#	116375
#	139480
#	162075
#	191833
#	219810
#
# Disc length: 3261 seconds
#
# Revision: 1
# Processed by: cddbd v1.5PL3 Copyright (c) Steve Scherf et al.
# Submitted via: CDex 1.50Beta5
#
DISCID=8a0cbb0a
DTITLE=熱帯倶楽部 - 熱帯倶楽部〜Spirit of Rhythm〜
DYEAR=2001
DGENRE=Fusion
TTITLE0=熱帯倶楽部/アナザー・パート・オブ・ミー
TTITLE1=CHAKA/レディ・マーマレイド
TTITLE2=熱帯倶楽部/ガッチャ
TTITLE3=熱帯倶楽部/デザート・サンセット
TTITLE4=CHAKA/トムズ・ダイナー
TTITLE5=熱帯倶楽部/ヴァシロン
TTITLE6=熱帯倶楽部/サヴァンナ
TTITLE7=熱帯倶楽部/ハヴァナ・ストラッティン
TTITLE8=熱帯倶楽部/ミスター・マジック
TTITLE9=CHAKA/楽園の彼方へ
EXTD=
EXTT0=
EXTT1=
EXTT2=
EXTT3=
EXTT4=
EXTT5=
EXTT6=
EXTT7=
EXTT8=
EXTT9=
PLAYORDER=
